<svg width="32" height="29" viewBox="0 0 32 29" fill="none" xmlns="http://www.w3.org/2000/svg">
<path fill-rule="evenodd" clip-rule="evenodd" d="M16.2124 28.9317C23.6943 28.9317 31.9961 24.124 30.9464 14.8772C29.8967 5.63032 23.6943 0.822632 16.2124 0.822632C8.73041 0.822632 2.57659 5.03723 0.971672 14.8772C-0.633251 24.7171 8.73041 28.9317 16.2124 28.9317Z" fill="#2C2B29"/>
<path fill-rule="evenodd" clip-rule="evenodd" d="M16.0956 26.2536C22.0953 26.2536 28.7523 22.3984 27.9106 14.9836C27.0688 7.56874 22.0953 3.71356 16.0956 3.71356C10.096 3.71356 5.16139 7.09316 3.87443 14.9836C2.58748 22.874 10.096 26.2536 16.0956 26.2536Z" fill="white"/>
<path fill-rule="evenodd" clip-rule="evenodd" d="M4.30944 10.8628C5.12517 10.8656 5.47953 7.94602 6.9363 6.61676C8.27363 5.3965 11.3459 4.97808 11.3459 3.56728C11.3459 0.619655 8.15115 6.10352e-05 5.33008 6.10352e-05C2.50901 6.10352e-05 0 2.98984 0 5.93746C0 8.88508 2.74485 10.8576 4.30944 10.8628Z" fill="#2C2B29"/>
<path fill-rule="evenodd" clip-rule="evenodd" d="M27.6906 10.8628C26.8748 10.8655 26.5205 7.94596 25.0637 6.6167C23.7264 5.39643 20.6541 4.97802 20.6541 3.56722C20.6541 0.619594 23.8489 0 26.6699 0C29.491 0 32 2.98977 32 5.9374C32 8.88502 29.2551 10.8576 27.6906 10.8628Z" fill="#2C2B29"/>
<path fill-rule="evenodd" clip-rule="evenodd" d="M22.5426 20.7179C24.6674 20.2115 25.5534 19.3183 25.5534 16.4321C25.5534 13.5459 24.1999 10.6154 21.8694 10.6154C19.539 10.6154 17.9915 12.6994 17.9915 15.5857C17.9915 18.4719 20.4178 21.2243 22.5426 20.7179Z" fill="#2B2A28"/>
<path fill-rule="evenodd" clip-rule="evenodd" d="M21.7645 17.0564C22.3427 17.0564 22.5147 16.9089 22.7761 16.5777C23.0692 16.2063 23.2877 15.7755 23.2162 14.8856C23.0968 13.3988 22.4699 12.7148 21.2434 12.7148C20.0168 12.7148 19.7776 13.6574 19.7776 14.8856C19.7776 16.1138 20.538 17.0564 21.7645 17.0564Z" fill="white"/>
<path fill-rule="evenodd" clip-rule="evenodd" d="M9.43823 20.7179C7.31344 20.2115 6.42748 19.3183 6.42748 16.4321C6.42748 13.5459 7.78098 10.6154 10.1114 10.6154C12.4419 10.6154 13.9894 12.6994 13.9894 15.5857C13.9894 18.4719 11.563 21.2243 9.43823 20.7179Z" fill="#2B2A28"/>
<path fill-rule="evenodd" clip-rule="evenodd" d="M10.216 17.0564C9.63785 17.0564 9.46587 16.9089 9.20451 16.5777C8.91144 16.2063 8.69288 15.7755 8.76435 14.8856C8.88375 13.3988 9.51066 12.7148 10.7372 12.7148C11.9638 12.7148 12.203 13.6574 12.203 14.8856C12.203 16.1138 11.4426 17.0564 10.216 17.0564Z" fill="white"/>
<path fill-rule="evenodd" clip-rule="evenodd" d="M16.1013 22.7039C17.2666 22.7039 18.3965 20.9856 18.3965 20.2487C18.3965 19.5118 17.2498 19.3925 16.0845 19.3925C14.9193 19.3925 13.7726 19.5118 13.7726 20.2487C13.7726 20.9856 14.9361 22.7039 16.1013 22.7039Z" fill="#2C2B29"/>
</svg>
